<?xml version="1.0" encoding="UTF-8" standalone="no"?>
<!DOCTYPE svg PUBLIC "-//W3C//DTD SVG 1.1//EN" "http://www.w3.org/Graphics/SVG/1.1/DTD/svg11.dtd">
<svg width="100%" height="100%" viewBox="0 0 325 210" version="1.1" xmlns="http://www.w3.org/2000/svg" xmlns:xlink="http://www.w3.org/1999/xlink" xml:space="preserve" xmlns:serif="http://www.serif.com/" style="fill-rule:evenodd;clip-rule:evenodd;stroke-linejoin:round;stroke-miterlimit:2;">
    <g transform="matrix(1,0,0,1,-87.5296,-145.023)">
        <g transform="matrix(5.09764,0,0,5.09764,-325.801,-860.877)">
            <g transform="matrix(1,0,0,1,10.7309,0)">
                <path d="M90.723,236.626C90.156,236.91 89.526,237.128 88.833,237.28C87.613,237.549 85.773,237.683 83.316,237.683L70.352,237.683L70.352,198.157L78.042,198.157C83.006,198.157 86.363,198.384 88.113,198.84C88.667,198.984 89.179,199.158 89.648,199.361C88.682,200.031 87.935,200.842 87.409,201.794C86.636,203.194 86.25,205.408 86.25,208.435C86.25,210.534 86.522,212.26 87.067,213.611C87.613,214.962 88.3,216.019 89.13,216.784C89.955,217.544 91.63,218.761 94.155,220.436L94.155,223.523L86.567,223.523L86.567,226.111C86.567,229.073 86.868,231.36 87.47,232.971C88.012,234.42 89.096,235.638 90.723,236.626ZM80.63,204.919L80.63,230.92C82.111,230.92 83.023,230.623 83.364,230.029C83.706,229.435 83.877,227.82 83.877,225.183L83.877,209.826C83.877,208.036 83.82,206.889 83.706,206.384C83.592,205.88 83.332,205.509 82.925,205.273C82.518,205.037 81.753,204.919 80.63,204.919Z" style="fill-rule:nonzero;"/>
            </g>
            <g transform="matrix(1,0,0,1,-0.153639,2.84217e-14)">
                <path d="M100.533,199.361C100.987,199.046 101.49,198.763 102.041,198.511C103.766,197.721 105.85,197.326 108.291,197.326C110.429,197.326 112.314,197.603 113.945,198.157L113.266,198.157L113.266,210.119L110.22,210.119L110.22,207.19C110.22,205.823 110.098,204.952 109.854,204.577C109.61,204.203 109.203,204.016 108.633,204.016C108.015,204.016 107.547,204.268 107.229,204.773C106.912,205.277 106.753,206.042 106.753,207.068C106.753,208.386 106.932,209.379 107.29,210.046C107.632,210.714 108.6,211.519 110.196,212.463C111.322,213.132 112.345,213.772 113.266,214.382L113.266,237.683L114.536,237.683C112.953,238.236 111.181,238.513 109.219,238.513C106.468,238.513 104.12,237.992 102.176,236.95C101.979,236.845 101.79,236.737 101.607,236.626C102.039,236.41 102.435,236.156 102.794,235.864C103.624,235.189 104.206,234.253 104.54,233.056C104.873,231.86 105.04,229.488 105.04,225.94L105.04,223.523L106.997,223.523L106.997,228.332C106.997,229.813 107.132,230.766 107.4,231.189C107.669,231.612 108.145,231.824 108.828,231.824C109.512,231.824 110.021,231.555 110.354,231.018C110.688,230.481 110.855,229.683 110.855,228.625C110.855,226.298 110.537,224.776 109.903,224.06C109.252,223.344 107.648,222.147 105.093,220.471C105.075,220.459 105.058,220.448 105.04,220.436L105.04,212.097C105.04,208.353 104.926,205.843 104.698,204.565C104.47,203.288 103.901,202.128 102.989,201.086C102.366,200.374 101.547,199.799 100.533,199.361Z" style="fill-rule:nonzero;"/>
            </g>
            <g transform="matrix(1,0,0,1,-10.7309,0)">
                <path d="M124.523,198.157L137.149,198.157C137.539,200.533 137.954,203.332 138.394,206.555L139.81,216.614L142.154,198.157L155.557,198.157L155.557,237.683L146.572,237.683L146.572,210.998L142.984,237.683L136.612,237.683L132.827,211.609L132.827,237.683L125.113,237.683C125.553,237.529 125.978,237.354 126.388,237.158C128.276,236.255 129.55,235.136 130.209,233.801C130.868,232.466 131.198,230.391 131.198,227.575C131.198,223.702 130.603,220.894 129.415,219.153C128.52,217.84 126.662,216.25 123.843,214.382L123.843,210.119L130.343,210.119L130.343,208.557C130.343,205.416 130.038,203.19 129.428,201.88C128.817,200.569 127.572,199.483 125.692,198.62C125.318,198.449 124.928,198.294 124.523,198.157Z" style="fill-rule:nonzero;"/>
            </g>
        </g>
    </g>
</svg>
